<?xml version="1.0" encoding="UTF-8"?><svg id="Layer_2" xmlns="http://www.w3.org/2000/svg" viewBox="0 0 226 52.61"><defs><style>.cls-1{fill:#fff;}</style></defs><g id="Layer_1-2"><path class="cls-1" d="M64.3,3.88c2.98,0,5.32,2.4,5.32,5.39s-2.34,5.26-5.32,5.26-5.32-2.4-5.32-5.26,2.4-5.39,5.32-5.39ZM60.02,51.64v-31.92h8.63v31.92h-8.63Z"/><path class="cls-1" d="M97.66,28.28c-.97-.19-1.82-.26-2.6-.26-4.41,0-8.24,2.14-8.24,9.02v14.6h-8.63v-31.92h8.37v4.74c1.95-4.22,6.36-5,9.08-5,.71,0,1.36.07,2.01.13v8.7Z"/><path class="cls-1" d="M134.84,35.67c0,9.8-7.2,16.94-16.74,16.94s-16.74-7.14-16.74-16.94,7.2-16.94,16.74-16.94,16.74,7.07,16.74,16.94ZM126.21,35.67c0-6.03-3.89-9.08-8.11-9.08s-8.11,3.05-8.11,9.08,3.89,9.08,8.11,9.08,8.11-3.05,8.11-9.08Z"/><path class="cls-1" d="M149.56,33.27l7.85-1.17c1.82-.26,2.4-1.17,2.4-2.27,0-2.27-1.75-4.15-5.39-4.15s-5.84,2.4-6.1,5.19l-7.66-1.62c.52-5,5.13-10.51,13.69-10.51,10.12,0,13.89,5.71,13.89,12.13v15.7c0,1.69.19,3.96.39,5.06h-7.92c-.19-.84-.32-2.6-.32-3.83-1.62,2.53-4.67,4.74-9.41,4.74-6.81,0-10.97-4.61-10.97-9.6,0-5.71,4.22-8.89,9.54-9.67ZM159.82,38.72v-1.43l-7.2,1.1c-2.21.32-3.96,1.56-3.96,4.02,0,1.88,1.36,3.7,4.15,3.7,3.63,0,7.01-1.75,7.01-7.4Z"/><path class="cls-1" d="M177.27,51.64v-31.92h8.24v3.89c1.75-3.11,5.84-4.8,9.34-4.8,4.35,0,7.85,1.88,9.47,5.32,2.53-3.89,5.9-5.32,10.12-5.32,5.9,0,11.55,3.57,11.55,12.13v20.7h-8.37v-18.95c0-3.44-1.69-6.03-5.65-6.03-3.7,0-5.9,2.86-5.9,6.29v18.69h-8.57v-18.95c0-3.44-1.75-6.03-5.65-6.03s-5.97,2.79-5.97,6.29v18.69h-8.63Z"/><path class="cls-1" d="M56.5,51.99h-11.08l-5.06-9.28-12.11-22.28-12.11,22.28-5.06,9.28H0l5.06-9.28L28.25,0l23.19,42.7,5.06,9.28Z"/><path class="cls-1" d="M24,51.92h-2.74l1.25-2.3,5.73-10.56,5.73,10.56,1.25,2.3h-11.23Z"/></g></svg>